<?xml version="1.0" encoding="utf-8"?>
<!-- Generator: Adobe Illustrator 26.3.1, SVG Export Plug-In . SVG Version: 6.00 Build 0)  -->
<svg version="1.1" id="Layer_1" xmlns="http://www.w3.org/2000/svg" xmlns:xlink="http://www.w3.org/1999/xlink" x="0px" y="0px"
	 viewBox="0 0 427.56 141.8" style="enable-background:new 0 0 427.56 141.8;" xml:space="preserve">
<style type="text/css">
	.st0{fill:#FFFFFF;}
	.st1{clip-path:url(#SVGID_00000104677881576814659010000006083453548144517252_);fill:#FFFFFF;}
</style>
<polygon class="st0" points="64.28,27.58 64.28,66.26 85.53,45.19 85.53,6.5 "/>
<polygon class="st0" points="121.4,93.76 91.47,93.73 64.25,66.24 94.18,66.27 "/>
<polygon class="st0" points="4.5,6.4 25.58,27.65 64.26,27.65 43.19,6.4 "/>
<g>
	<defs>
		<rect id="SVGID_1_" x="4.5" y="6.4" width="418.56" height="127.5"/>
	</defs>
	<clipPath id="SVGID_00000025422963218392226280000004846619630927741863_">
		<use xlink:href="#SVGID_1_"  style="overflow:visible;"/>
	</clipPath>
	<path style="clip-path:url(#SVGID_00000025422963218392226280000004846619630927741863_);fill:#FFFFFF;" d="M156.97,67.48h7.31
		c6.32,0,8.31,3.24,8.31,8.56c0,8.39-5.98,8.48-8.64,8.48h-6.98V67.48z M156.97,42.96h7.73c4.24,0,7.23,3.24,7.23,7.64
		c0,5.82-3.82,7.65-6.57,7.65h-8.39V42.96z M166.61,93.74c5.32,0,18.53-0.67,18.53-15.87c0-8.23-2.33-13.96-11.22-15.21v-0.17
		c6.81-1.33,10.22-6.32,10.22-13.21c0-12.8-7.9-15.54-17.45-15.54h-22.27v60H166.61z M214.98,93.74h12.13
		c-0.25-2.74-0.42-5.57-0.42-8.31V51.77h-11.72v29.08c0,3.74-0.67,6.48-4.4,6.48c-3.74,0-4.4-2.74-4.4-6.48V51.77h-11.72v33.66
		c0,5.82,4.9,9.14,10.47,9.14c2.24,0,4.07-0.33,5.73-1.16c1.66-0.75,2.99-2.08,4.15-3.91h0.17V93.74z M248.72,51.77H237v41.96h11.72
		V51.77z M237,42.96h11.72v-9.22H237V42.96z M260.1,93.74h11.72v-60H260.1V93.74z M297.83,87.34c-4.24,0-4.99-4.41-4.99-14.96
		c0-8.39-0.08-14.21,4.99-14.21c4.82,0,4.74,5.82,4.74,14.21C302.57,82.94,301.82,87.34,297.83,87.34 M314.28,93.74v-60h-11.72
		v22.02h-0.17c-2.41-3.57-5.32-4.82-9.56-4.82c-11.8,0-11.47,13.05-11.47,21.52c0,8.64-0.42,22.1,11.72,22.1
		c4.49,0,7.73-1.41,9.89-5.49h0.17v4.65H314.28z M334.56,68.06c0-3.57-0.08-9.89,5.32-9.89c5.57,0,5.4,5.82,5.4,9.89H334.56z
		 M357,74.63c0.42-13.46-1.33-23.68-17.12-23.68c-15.46,0-17.12,9.81-17.12,21.27c0,13.13,1.99,22.35,17.12,22.35
		c5.49,0,9.64-1.5,12.38-4.07c2.83-2.58,4.32-6.32,4.49-10.89h-11.88c0,3.49-0.83,7.48-4.99,7.48c-5.15,0-5.32-7.48-5.32-12.47H357z
		 M365.31,51.77v41.97h11.72V70.89c0-4.16,0.17-10.14,10.47-9.47V50.94c-4.74,0-8.73,1.41-10.89,6.23h-0.17v-5.4H365.31z
		 M390.73,80.28c-0.67,11.72,6.15,14.29,16.37,14.29c9.72,0,15.71-5.49,15.71-12.8c0-13.46-20.61-13.13-20.61-19.78
		c0-2.82,1.41-4.49,3.99-4.49c1.25,0,2.24,0.17,2.99,0.92c0.83,0.75,1.16,2.49,1.16,5.4h11.47c0.66-9.06-6.57-12.88-14.54-12.88
		c-7.56,0-16.54,2.74-16.54,11.8c0,13.38,20.61,11.38,20.61,20.28c0,2.83-1.99,4.32-4.32,4.32c-2.33,0-3.57-0.67-4.24-1.99
		c-0.58-1.33-0.67-3.16-0.58-5.07H390.73z"/>
	<path style="clip-path:url(#SVGID_00000025422963218392226280000004846619630927741863_);fill:#FFFFFF;" d="M259.57,128.78v-1.82
		h-6.51v-5.69h5.92v-1.82h-5.92v-5.29h6.38v-1.82h-8.47v16.45H259.57z M268.23,122.56c0,2.32,0,4.92-2.1,4.92
		c-2.35,0-2.35-2.51-2.35-4.24c0-3.08,0.27-4.67,2.28-4.67C268.13,118.57,268.23,121.03,268.23,122.56 M268.23,118.43h-0.07
		c-0.64-0.91-1.43-1.39-2.53-1.39c-3.71,0-3.8,3.3-3.8,6.17c0,5.06,1.87,5.79,3.71,5.79c1.21,0,2-0.52,2.64-1.59h0.05v1.37h1.87
		v-16.45h-1.87V118.43z M279.68,124.91c0,1.91-1.25,2.66-2.25,2.66c-1.32,0-1.96-0.93-1.96-2.32v-7.97h-1.87v8.77
		c0,1.96,1.09,2.96,3.1,2.96c1.21,0,2.3-0.57,2.92-1.62h0.07v1.39h1.98c-0.07-0.8-0.11-1.59-0.11-2.39v-9.11h-1.87V124.91z
		 M292.87,120.96c0.11-2.57-1.23-3.92-3.53-3.92c-3.99,0-4.37,2.78-4.37,6.15c0,5.08,1.94,5.81,4.37,5.81
		c1.28,0,3.69-0.82,3.62-4.06h-1.96c0.07,2.07-1.23,2.53-1.66,2.53c-1.94,0-2.41-1.34-2.41-5.08c0-3.14,0.98-3.83,2.41-3.83
		c0.71,0,1.64,0.5,1.59,2.39H292.87z M302.19,123.06c0.18,3.71-1.23,4.42-2.37,4.42c-1.25,0-1.8-1-1.8-2.12
		C298.02,122.92,300.42,123.08,302.19,123.06 M302.24,128.78h2.05c-0.14-0.89-0.23-1.82-0.23-2.73v-5.54c0-1.93-0.77-3.46-3.74-3.46
		c-2.44,0-3.8,0.89-3.9,3.46h2.03c-0.11-1.21,0.55-2.05,1.8-2.05c2,0,1.98,1.66,1.94,3.19c-2.62-0.07-6.04,0.09-6.04,3.58
		c0,2.21,0.71,3.78,3.15,3.78c1.43,0,2.32-0.57,2.89-1.89h0.04V128.78z M315.66,120.96c0.11-2.57-1.23-3.92-3.53-3.92
		c-3.99,0-4.37,2.78-4.37,6.15c0,4.53,1.55,5.6,3.62,5.79l-1.3,1.75l0.39,0.43c0.27-0.07,0.57-0.18,0.86-0.18
		c0.59,0,1.12,0.3,1.12,0.93c0,0.68-0.73,0.91-1.3,0.91c-0.55,0-0.98-0.16-1.48-0.34l-0.39,0.91c0.61,0.25,1.41,0.5,2.26,0.5
		c1.18,0,2.64-0.57,2.64-2.12c0-1.12-0.87-1.73-1.89-1.73c-0.23,0-0.5,0.07-0.68,0.14l-0.05-0.04l0.89-1.16
		c1.3-0.11,3.37-1.03,3.3-4.03h-1.96c0.07,2.07-1.23,2.53-1.66,2.53c-1.94,0-2.42-1.34-2.42-5.08c0-3.14,0.98-3.83,2.42-3.83
		c0.7,0,1.64,0.5,1.59,2.39H315.66z M324.97,123.06c0.18,3.71-1.23,4.42-2.37,4.42c-1.25,0-1.8-1-1.8-2.12
		C320.8,122.92,323.2,123.08,324.97,123.06 M325.02,128.78h2.05c-0.14-0.89-0.23-1.82-0.23-2.73v-5.54c0-1.93-0.77-3.46-3.73-3.46
		c-2.44,0-3.8,0.89-3.9,3.46h2.03c-0.11-1.21,0.55-2.05,1.8-2.05c2,0,1.98,1.66,1.94,3.19c-2.62-0.07-6.04,0.09-6.04,3.58
		c0,2.21,0.71,3.78,3.14,3.78c1.44,0,2.32-0.57,2.89-1.89h0.05V128.78z M325.86,112.97c-0.07,0.71-0.45,1.02-1.16,1.02
		c-0.36,0-0.82-0.21-1.34-0.43c-0.52-0.2-1.09-0.41-1.71-0.41c-1.5,0-2.23,1.07-2.37,2.46h1.05c0.07-0.5,0.52-1.02,1.05-1.02
		c0.5,0,1.07,0.2,1.64,0.43c0.57,0.21,1.14,0.43,1.64,0.43c0.73,0,1.28-0.29,1.66-0.75c0.39-0.46,0.64-1.09,0.71-1.73H325.86z
		 M334.54,127.48c-1.94,0-2.42-1.34-2.42-5.08c0-3.14,0.98-3.83,2.42-3.83c1.44,0,2.41,0.68,2.41,3.83
		C336.96,126.14,336.48,127.48,334.54,127.48 M334.54,129.01c2.44,0,4.37-0.73,4.37-5.81c0-3.37-0.39-6.15-4.37-6.15
		c-3.99,0-4.37,2.78-4.37,6.15C330.17,128.28,332.1,129.01,334.54,129.01"/>
	<path style="clip-path:url(#SVGID_00000025422963218392226280000004846619630927741863_);fill:#FFFFFF;" d="M354.01,121.08h2.23
		c2.14,0,3.76,0.46,3.76,3.08c0,1.21-0.8,2.8-3.03,2.8h-2.96V121.08z M354.01,114.15h2.96c1.75,0,2.53,1.12,2.53,2.48
		c0,1.59-0.8,2.6-2.44,2.62h-3.05V114.15z M357.2,128.78c1.87,0,4.94-0.41,4.94-4.62c0-2.26-1.02-3.67-3.37-3.94v-0.11
		c2.12-0.48,2.83-1.85,2.83-3.9c0-0.32-0.09-1.3-0.66-2.19c-0.61-0.91-1.39-1.69-3.67-1.69h-5.35v16.45H357.2z M367.25,117.27h-1.87
		v11.5h1.87V117.27z M365.27,114.34h2.1v-2.01h-2.1V114.34z M372.31,112.33h-1.87v16.45h1.87V112.33z M377.36,117.27h-1.87v11.5
		h1.87V117.27z M376.66,112.33l-2.03,3.21h1.53l2.98-3.21H376.66z M388.71,128.78v-7.97c0-2.28-0.62-3.76-3.08-3.76
		c-1.48,0-2.35,0.41-3.08,1.71h-0.09v-1.48h-1.98c0.07,0.8,0.11,1.6,0.11,2.39v9.11h1.87v-6.81c0-1.57,0.3-3.39,2.35-3.39
		c1.59,0,2.03,1,2.03,2.23v7.97H388.71z M398.12,122.97c0,1.59,0.07,4.26-2.19,4.26c-1.39,0-2.23-0.87-2.23-4.56
		c0-1.53,0.07-4.08,2.19-4.08C398.23,118.6,398.12,121.26,398.12,122.97 M398.07,118.69h-0.05c-0.52-1.12-1.48-1.64-2.69-1.64
		c-0.93,0-3.6,0.34-3.6,5.63c0,3.42,0.62,6.11,3.74,6.11c1,0,2.05-0.53,2.53-1.44h0.07v2.39c0,1.18-0.71,1.98-2.01,1.98
		c-1.02,0-1.73-0.59-1.75-1.66h-2.1c-0.16,2.12,1.57,3.08,3.49,3.08c2.53,0,4.24-0.61,4.24-3.19v-12.67h-1.87V118.69z
		 M409.53,124.91c0,1.91-1.25,2.67-2.26,2.67c-1.32,0-1.96-0.94-1.96-2.32v-7.97h-1.87v8.77c0,1.96,1.09,2.96,3.1,2.96
		c1.21,0,2.3-0.57,2.92-1.62h0.07v1.39h1.98c-0.07-0.8-0.11-1.6-0.11-2.39v-9.11h-1.87V124.91z M416.59,122.22
		c0.02-3.19,1-3.76,2.19-3.76c1.37,0,2.3,0.41,2.3,3.76H416.59z M423.06,123.63v-0.98c0-3.81-0.82-5.6-4.1-5.6
		c-3.99,0-4.37,2.78-4.37,6.15c0,5.08,1.94,5.81,4.37,5.81c2.41,0,3.99-1.16,4.01-3.71h-2.05c-0.07,1.16-0.73,2.19-2.01,2.19
		c-1.46,0-2.32-0.64-2.32-3.85H423.06z"/>
</g>
</svg>
